<svg xmlns="http://www.w3.org/2000/svg" version="1.0" width="256.000000pt" height="400.000000pt" viewBox="0 0 256.000000 400.000000" preserveAspectRatio="xMidYMid meet">
  <g transform="translate(0.000000,256.000000) scale(0.100000,-0.100000)" fill="#0077b6" stroke="none">
    <path d="M1560 1110 l0 -740 165 0 165 0 0 740 0 740 -165 0 -165 0 0 -740z"/>
    <path d="M210 1010 l0 -640 170 0 170 0 0 640 0 640 -170 0 -170 0 0 -640z"/>
    <path d="M2010 910 l0 -540 165 0 165 0 0 540 0 540 -165 0 -165 0 0 -540z"/>
    <path d="M660 810 l0 -440 165 0 165 0 0 440 0 440 -165 0 -165 0 0 -440z"/>
    <path d="M1110 710 l0 -340 165 0 165 0 0 340 0 340 -165 0 -165 0 0 -340z"/>
  </g>
  <text x="35" y="260" font-size="35" font-weight="500" font-family="Arial, Helvetica, sans-serif">Powered by</text>
  <text x="75" y="315" font-size="50" font-weight="800" font-family="Arial, Helvetica, sans-serif">DAP</text>
</svg>
