<?xml version="1.0" ?><svg id="Layer_1" style="enable-background:new 0 0 24 24;" version="1.1" viewBox="0 0 24 24" xml:space="preserve" xmlns="http://www.w3.org/2000/svg" xmlns:xlink="http://www.w3.org/1999/xlink"><g><path d="M14.5,23.862c-0.113,0-0.223-0.038-0.313-0.11C14.069,23.657,14,23.514,14,23.362v-3.72c0-0.899-0.115-1.537-0.363-2.005   c-0.073-0.137-0.077-0.3-0.013-0.441s0.191-0.244,0.342-0.279C16.93,16.233,19,14.064,19,11.642c0-1.2-0.493-2.345-1.425-3.312   c-0.144-0.149-0.181-0.37-0.094-0.558c0.372-0.802,0.293-1.894-0.148-2.549c-0.583,0.228-1.34,0.705-1.832,1.289   c-0.134,0.161-0.355,0.22-0.554,0.147c-1.875-0.688-4.018-0.688-5.893,0C8.857,6.731,8.635,6.673,8.5,6.513   C8.008,5.929,7.251,5.452,6.667,5.224C6.226,5.879,6.147,6.971,6.519,7.773C6.606,7.96,6.569,8.181,6.425,8.33   C5.493,9.297,5,10.443,5,11.642c0,2.307,1.863,4.385,4.636,5.17C9.852,16.874,10,17.07,10,17.294v0.349   c0,0.626-0.251,0.979-0.462,1.166c-0.452,0.397-1.036,0.337-1.1,0.33c-0.003,0-0.007,0-0.01,0c-0.824,0-1.444-0.459-2.043-0.903   c-0.301-0.223-0.606-0.45-0.961-0.638c0.077,0.104,0.153,0.211,0.23,0.318c0.75,1.043,1.599,2.226,2.847,2.226h1   c0.276,0,0.5,0.224,0.5,0.5v2.72c0,0.152-0.069,0.295-0.187,0.39c-0.119,0.094-0.273,0.129-0.421,0.098   C3.95,22.642,0,17.719,0,12.142c0-6.617,5.383-12,12-12s12,5.383,12,12c0,5.576-3.95,10.5-9.392,11.708   C14.572,23.858,14.536,23.862,14.5,23.862z M14.758,17.741C14.922,18.258,15,18.878,15,19.642v3.078c4.671-1.326,8-5.677,8-10.578   c0-6.065-4.935-11-11-11s-11,4.935-11,11c0,4.901,3.329,9.252,8,10.578v-1.578H8.5c-1.76,0-2.813-1.465-3.659-2.643   c-0.479-0.667-0.975-1.357-1.341-1.357c-0.276,0-0.5-0.224-0.5-0.5s0.224-0.5,0.5-0.5c1.74,0,2.705,0.715,3.48,1.29   c0.536,0.397,0.958,0.71,1.52,0.71c0.056,0.003,0.263,0.018,0.379-0.086C8.974,17.97,8.998,17.799,9,17.664   c-3.006-0.987-5-3.368-5-6.021c0-1.364,0.512-2.66,1.484-3.766C5.055,6.634,5.32,5.116,6.146,4.289   c0.125-0.126,0.307-0.177,0.481-0.13c0.668,0.177,1.66,0.696,2.401,1.451c1.905-0.621,4.036-0.621,5.941,0   c0.741-0.755,1.733-1.274,2.401-1.451c0.173-0.047,0.355,0.003,0.481,0.13c0.827,0.827,1.091,2.345,0.662,3.587   C19.488,8.983,20,10.279,20,11.642C20,14.37,17.873,16.812,14.758,17.741z"/></g><g/><g/><g/><g/><g/><g/><g/><g/><g/><g/><g/><g/><g/><g/><g/></svg>